<svg version="1.1" id="Capa_1" xmlns="http://www.w3.org/2000/svg" xmlns:xlink="http://www.w3.org/1999/xlink" x="0px" y="0px"
	 viewBox="0 0 54 54" style="enable-background:new 0 0 54 54;" xml:space="preserve">
<g>
	<g>
		<path style="fill:#5bc0de;" d="M27,1L27,1c14.359,0,26,11.641,26,26v0c0,14.359-11.641,26-26,26h0C12.641,53,1,41.359,1,27v0
			C1,12.641,12.641,1,27,1z"/>
		<path style="fill:#5bc0de;" d="M27,54C12.112,54,0,41.888,0,27S12.112,0,27,0s27,12.112,27,27S41.888,54,27,54z M27,2
			C13.215,2,2,13.215,2,27s11.215,25,25,25s25-11.215,25-25S40.785,2,27,2z"/>
	</g>
	<path style="fill:#FFFFFF;" d="M31.706,40c-0.256,0-0.512-0.098-0.707-0.293L19.501,28.209c-0.667-0.667-0.667-1.751,0-2.418
		l11.498-11.498c0.391-0.391,1.023-0.391,1.414,0s0.391,1.023,0,1.414L21.12,27l11.293,11.293c0.391,0.391,0.391,1.023,0,1.414
		C32.218,39.902,31.962,40,31.706,40z"/>
</g>
<g>
</g>
<g>
</g>
<g>
</g>
<g>
</g>
<g>
</g>
<g>
</g>
<g>
</g>
<g>
</g>
<g>
</g>
<g>
</g>
<g>
</g>
<g>
</g>
<g>
</g>
<g>
</g>
<g>
</g>
</svg>
